<svg width="25" height="25" viewBox="0 0 25 25" fill="none" xmlns="http://www.w3.org/2000/svg">
<g clip-path="url(#clip0_102_186)">
<path d="M4.90083 0.00634766C2.20791 0.00634766 0.00390625 2.2103 0.00390625 4.90327V20.0993C0.00390625 22.7922 2.20786 24.9954 4.90083 24.9954H20.0969C22.7898 24.9954 24.993 22.7922 24.993 20.0993V4.90327C24.993 2.21035 22.7898 0.00634766 20.0969 0.00634766H4.90083ZM6.13248 4.13005C7.42368 4.13005 8.21901 4.9777 8.24356 6.09192C8.24356 7.18155 7.42363 8.05302 6.10751 8.05302H6.08328C4.81666 8.05302 3.99798 7.1816 3.99798 6.09192C3.99798 4.97772 4.84143 4.13005 6.13246 4.13005H6.13248ZM17.2595 9.3378C19.7427 9.3378 21.6042 10.9608 21.6042 14.4487V20.9599H17.8304V14.8852C17.8304 13.3587 17.2842 12.3173 15.9185 12.3173C14.8759 12.3173 14.2545 13.0192 13.9816 13.6973C13.8819 13.9399 13.8574 14.2788 13.8574 14.6181V20.9599H10.0836C10.0836 20.9599 10.1331 10.6696 10.0836 9.6041H13.8582V11.2122C14.3597 10.4384 15.2568 9.33777 17.2595 9.33777V9.3378ZM4.22058 9.60492H7.99441V20.96H4.22058V9.60492Z" fill="white"/>
</g>
<defs>
<clipPath id="clip0_102_186">
<rect width="25" height="25" fill="white"/>
</clipPath>
</defs>
</svg>
