<svg width="25" height="25" viewBox="0 0 25 25" fill="none" xmlns="http://www.w3.org/2000/svg">
<mask id="mask0_291_188" style="mask-type:luminance" maskUnits="userSpaceOnUse" x="0" y="0" width="25" height="25">
<path d="M0 0H25V25H0V0Z" fill="white"/>
</mask>
<g mask="url(#mask0_291_188)">
<path d="M12.5 0C5.59688 0 0 5.59688 0 12.5C0 18.7667 4.61667 23.9417 10.6323 24.8458V15.8125H7.53854V12.526H10.6323V10.3406C10.6323 6.72083 12.3958 5.13229 15.4031 5.13229C16.8448 5.13229 17.6063 5.23854 17.9677 5.2875V8.15521H15.9156C14.6385 8.15521 14.1917 9.36667 14.1917 10.7313V12.5271H17.9354L17.4271 15.8135H14.1917V24.8719C20.2927 24.0448 25 18.8281 25 12.5C25 5.59688 19.4031 0 12.5 0Z" fill="white"/>
</g>
</svg>
